<svg width="239" height="195" viewBox="0 0 239 195" fill="none" xmlns="http://www.w3.org/2000/svg">
<path fill-rule="evenodd" clip-rule="evenodd" d="M105.352 36.5819C83.7996 12.186 46.5987 9.29652 21.5168 30.3428C-3.96555 51.725 -7.28938 89.7161 14.0928 115.198L49.7984 157.751C40.5996 136.094 43.6026 110.173 59.7635 90.9127L105.352 36.5819Z" fill="#C9D523"/>
<path fill-rule="evenodd" clip-rule="evenodd" d="M216.5 14.0928C191.018 -7.28939 153.026 -3.96554 131.644 21.5168L112.679 44.1181L204.496 122.101L223.924 98.9486C245.306 73.4663 241.982 35.475 216.5 14.0928ZM197.286 130.695L105.469 52.7113L69.4968 95.5811C48.1146 121.063 51.4384 159.055 76.9207 180.437C102.403 201.819 140.394 198.495 161.777 173.013L197.286 130.695Z" fill="#0DB4A3"/>
</svg>
